<svg width="72" height="72" viewBox="0 0 72 72" fill="none" xmlns="http://www.w3.org/2000/svg">
<circle cx="36" cy="36" r="36" fill="#1BB36C"/>
<path d="M41.7271 36L52.8139 24.9132C54.3954 23.3317 54.3954 20.7676 52.8139 19.1861C51.2323 17.6046 48.6684 17.6046 47.0868 19.1861L36 30.2729L24.9132 19.1861C23.3317 17.6046 20.7676 17.6046 19.1861 19.1861C17.6046 20.7676 17.6046 23.3317 19.1861 24.9132L30.2729 36L19.1861 47.0868C17.6046 48.6683 17.6046 51.2324 19.1861 52.8139C19.9769 53.6045 21.0133 54 22.0496 54C23.086 54 24.1225 53.6046 24.9132 52.8139L36 41.7271L47.0868 52.8139C47.8775 53.6045 48.9139 54 49.9503 54C50.9867 54 52.023 53.6046 52.8138 52.8139C54.3953 51.2324 54.3953 48.6683 52.8138 47.0868L41.7271 36Z" fill="white"/>
</svg>
