<svg width="36" height="36" viewBox="0 0 36 36" fill="none" xmlns="http://www.w3.org/2000/svg">
<circle cx="18" cy="18" r="18" fill="white"/>
<path d="M20.5454 18L25.4728 13.0725C26.1757 12.3697 26.1757 11.2301 25.4728 10.5272C24.7699 9.82428 23.6304 9.82428 22.9274 10.5272L18 15.4546L13.0725 10.5272C12.3697 9.82428 11.2301 9.82428 10.5272 10.5272C9.82428 11.2301 9.82428 12.3697 10.5272 13.0725L15.4546 18L10.5272 22.9275C9.82428 23.6303 9.82428 24.7699 10.5272 25.4728C10.8786 25.8242 11.3392 26 11.7998 26C12.2605 26 12.7211 25.8243 13.0725 25.4728L18 20.5454L22.9274 25.4728C23.2789 25.8242 23.7395 26 24.2001 26C24.6607 26 25.1213 25.8243 25.4728 25.4728C26.1757 24.7699 26.1757 23.6303 25.4728 22.9275L20.5454 18Z" fill="#1BB36C"/>
</svg>
