<svg width="62" height="62" viewBox="0 0 62 62" fill="none" xmlns="http://www.w3.org/2000/svg">
<circle cx="31" cy="31" r="31" fill="#1BB36C"/>
<path d="M35.9317 31L45.4786 21.4531C46.8405 20.0912 46.8405 17.8832 45.4786 16.5214C44.1167 15.1595 41.9089 15.1595 40.5469 16.5214L31 26.0683L21.4531 16.5214C20.0912 15.1595 17.8832 15.1595 16.5214 16.5214C15.1595 17.8832 15.1595 20.0912 16.5214 21.4531L26.0683 31L16.5214 40.5469C15.1595 41.9088 15.1595 44.1168 16.5214 45.4786C17.2023 46.1595 18.0948 46.5 18.9872 46.5C19.8796 46.5 20.7721 46.1595 21.453 45.4786L31 35.9317L40.5469 45.4786C41.2279 46.1595 42.1203 46.5 43.0127 46.5C43.9052 46.5 44.7976 46.1595 45.4785 45.4786C46.8404 44.1168 46.8404 41.9088 45.4785 40.5469L35.9317 31Z" fill="white"/>
</svg>
