<svg width="39" height="68" viewBox="0 0 39 68" fill="none" xmlns="http://www.w3.org/2000/svg">
<path d="M17.6055 0C16.5244 0 15.6516 0.877795 15.6516 1.95396V17.3328H11.7387V1.95396C11.7387 0.872836 10.8609 0 9.78469 0H9.77488C8.69375 0 7.82083 0.877795 7.82083 1.95396V17.3328H3.90799V1.95396C3.90799 0.872836 3.03022 0 1.95406 0C0.872929 0 0 0.877795 0 1.95396V25.9619C0 29.0367 2.48967 31.5213 5.55948 31.5213H5.86689V67.7986H13.6927V31.5213H14.0001C17.0699 31.5213 19.5596 29.0317 19.5596 25.9619V1.95396C19.5596 0.877795 18.6866 0 17.6055 0Z" fill="white"/>
<path d="M25.1787 0V31.0155V67.8035H33.0045V31.0155H36.9372C38.0778 31.0155 39.0003 30.093 39.0003 28.9524V13.8265C39.0003 6.18921 32.8111 0 25.1787 0Z" fill="white"/>
</svg>
