<svg width="52" height="25" viewBox="0 0 52 25" fill="none" xmlns="http://www.w3.org/2000/svg">
<path d="M50.1128 11.4305C43.9802 4.16968 35.0136 0 25.5099 0C16.0154 0 7.04874 4.16516 0.907044 11.4305L0 12.5045L0.907044 13.5785C7.04874 20.8303 16.0154 25 25.5099 25C35.0136 25 43.9802 20.8348 50.1128 13.5785L51.0198 12.5045L50.1128 11.4305Z" fill="white"/>
<path d="M34.7201 12.5005C34.7201 17.5862 30.5956 21.7062 25.5144 21.7062C20.4286 21.7062 16.3086 17.5862 16.3086 12.5005C16.3086 7.41471 20.4332 3.29468 25.5144 3.29468C30.5956 3.29468 34.7201 7.41471 34.7201 12.5005Z" fill="#1BB36C"/>
</svg>
