<svg width="51" height="62" viewBox="0 0 51 62" fill="none" xmlns="http://www.w3.org/2000/svg">
<path d="M51 39.094C51 39.094 47.7687 40.8256 46.7491 41.3381C36.5534 46.6248 30.1987 53.0821 28.03 61.9507H22.9916C20.8068 53.0875 14.4681 46.6248 4.25624 41.3543C3.23667 40.8256 0 39.1102 0 39.1102C0 39.1102 2.56775 37.8317 4.25624 37.8317C13.2867 37.7669 19.9166 46.846 23.8385 54.8623V40.5559C23.2936 40.5559 22.7542 40.5074 22.2255 40.4481H22.2201C21.6483 40.3671 21.1088 40.2754 20.5801 40.1243C20.0515 39.9841 19.4959 39.8223 18.9834 39.6119C17.0413 38.8297 15.2612 37.5457 13.8208 35.8195C11.0534 32.4263 10.2658 28.0891 11.3393 24.1457C13.5564 23.8921 15.8006 24.2051 17.8559 25.052C18.746 25.435 19.5876 25.8935 20.359 26.4546C20.564 25.7209 20.8067 25.0089 21.1358 24.3238C22.1392 22.1066 23.7792 20.2131 25.8183 18.8699C27.6147 20.1322 29.0874 21.8207 30.053 23.7951V23.8112V23.8274C30.4522 24.6042 30.7543 25.3864 30.9754 26.2496C31.6713 25.8018 32.378 25.4026 33.1279 25.1005C35.2102 24.2266 37.4921 23.8921 39.7362 24.1457C40.7989 28.0837 40.0113 32.4263 37.2331 35.8195C35.8036 37.5619 33.9964 38.8351 32.022 39.6281C31.6282 39.7899 31.2236 39.941 30.8083 40.0381C30.614 40.119 30.4091 40.1621 30.2041 40.2107C30.0314 40.2484 29.8696 40.2808 29.6969 40.3185C29.3948 40.3779 29.0928 40.4264 28.7853 40.4588C28.2566 40.5235 27.7063 40.5667 27.1777 40.5667V54.8731C31.0941 46.8406 37.7186 37.7777 46.7599 37.8263C48.416 37.8316 51 39.094 51 39.094Z" fill="white"/>
<path d="M20.1109 15.2504H16.6637C11.6954 10.1687 21.6321 5.08706 16.6637 0H20.1109C25.0792 5.08706 15.1425 10.1687 20.1109 15.2504Z" fill="white"/>
<path d="M28.2837 15.2504H24.8366C19.8682 10.1687 29.805 5.08706 24.8366 0H28.2837C33.2521 5.08706 23.3207 10.1687 28.2837 15.2504Z" fill="white"/>
<path d="M36.462 15.2504H33.0094C28.0411 10.1687 37.9778 5.08706 33.0094 0H36.4566C41.4249 5.08706 31.4936 10.1687 36.462 15.2504Z" fill="white"/>
</svg>
