<svg width="41" height="52" viewBox="0 0 41 52" fill="none" xmlns="http://www.w3.org/2000/svg">
<path d="M38.5646 51.4628L15.9893 52L13.9754 49.0159L13.9901 49.0061C13.652 48.5861 13.3433 48.1416 13.0787 47.6777L11.2509 45.2112L0.793838 31.1209C-0.524317 29.348 -0.166611 26.8278 1.61216 25.514C2.07278 25.1673 2.58241 24.9328 3.11653 24.8107C4.63069 24.464 6.26246 24.9866 7.2474 26.3101L9.62398 29.7534L10.0111 30.2466L11.4763 32.1954V3.68256C11.4763 1.65081 13.1277 0 15.1612 0C17.1948 0 18.856 1.65081 18.856 3.68256V19.4725C18.856 17.431 20.5074 15.79 22.5409 15.79C24.5794 15.79 26.2357 17.4359 26.2357 19.4725V20.8596C26.2357 18.8278 27.8871 17.1771 29.9206 17.1771C31.9542 17.1771 33.6154 18.8278 33.6154 20.8596V23.1648C33.6154 21.1428 35.2667 19.4872 37.3052 19.4872C38.3343 19.4872 39.2556 19.9072 39.9171 20.5617C40.5786 21.2405 41 22.1489 41 23.1648L38.5646 51.4628Z" fill="white"/>
</svg>
