<svg width="24" height="24" viewBox="0 0 38 38" fill="none" xmlns="http://www.w3.org/2000/svg">
<path d="M26.3077 16.0769C26.3077 13.2604 25.3067 10.8512 23.3047 8.84916C21.3027 6.84716 18.8934 5.84615 16.0769 5.84615C13.2604 5.84615 10.8512 6.84716 8.84916 8.84916C6.84716 10.8512 5.84615 13.2604 5.84615 16.0769C5.84615 18.8934 6.84716 21.3027 8.84916 23.3047C10.8512 25.3067 13.2604 26.3077 16.0769 26.3077C18.8934 26.3077 21.3027 25.3067 23.3047 23.3047C25.3067 21.3027 26.3077 18.8934 26.3077 16.0769ZM38 35.0769C38 35.8686 37.7107 36.5537 37.1322 37.1322C36.5537 37.7107 35.8686 38 35.0769 38C34.2548 38 33.5697 37.7107 33.0216 37.1322L25.1887 29.3221C22.4635 31.2099 19.4263 32.1538 16.0769 32.1538C13.8998 32.1538 11.8179 31.7314 9.83113 30.8864C7.84435 30.0415 6.13161 28.8996 4.69291 27.4609C3.25421 26.0222 2.11238 24.3095 1.26743 22.3227C0.422476 20.3359 0 18.254 0 16.0769C0 13.8998 0.422476 11.8179 1.26743 9.83113C2.11238 7.84435 3.25421 6.13161 4.69291 4.69291C6.13161 3.25421 7.84435 2.11238 9.83113 1.26743C11.8179 0.422476 13.8998 0 16.0769 0C18.254 0 20.3359 0.422476 22.3227 1.26743C24.3095 2.11238 26.0222 3.25421 27.4609 4.69291C28.8996 6.13161 30.0415 7.84435 30.8864 9.83113C31.7314 11.8179 32.1538 13.8998 32.1538 16.0769C32.1538 19.4263 31.2099 22.4635 29.3221 25.1887L37.155 33.0216C37.7183 33.5849 38 34.27 38 35.0769Z" fill="white"/>
</svg>
