<svg width="43" height="38" viewBox="0 0 43 38" fill="none" xmlns="http://www.w3.org/2000/svg">
<path d="M36.3335 31.1928H0V6.0088C0 2.69033 2.9827 0 6.66187 0H36.3381C40.0172 0 43 2.69033 43 6.0088V25.184C42.9954 28.5025 40.0127 31.1928 36.3335 31.1928Z" fill="white"/>
<path d="M12.3249 31.1929L0 37.2264V31.1929H12.3249Z" fill="white"/>
<path d="M14.9415 16.7243C14.9415 18.4269 13.4112 19.8072 11.5235 19.8072C9.63577 19.8072 8.10547 18.4269 8.10547 16.7243C8.10547 15.0217 9.63577 13.6414 11.5235 13.6414C13.4112 13.6414 14.9415 15.0217 14.9415 16.7243Z" fill="#1BB36C"/>
<path d="M24.9161 16.7243C24.9161 18.4269 23.3858 19.8072 21.4981 19.8072C19.6104 19.8072 18.0801 18.4269 18.0801 16.7243C18.0801 15.0217 19.6104 13.6414 21.4981 13.6414C23.3858 13.6414 24.9161 15.0217 24.9161 16.7243Z" fill="#1BB36C"/>
<path d="M34.8897 16.7243C34.8897 18.4269 33.3594 19.8072 31.4717 19.8072C29.584 19.8072 28.0537 18.4269 28.0537 16.7243C28.0537 15.0217 29.584 13.6414 31.4717 13.6414C33.3594 13.6414 34.8897 15.0217 34.8897 16.7243Z" fill="#1BB36C"/>
</svg>
