<svg width="43" height="37" viewBox="0 0 43 37" fill="none" xmlns="http://www.w3.org/2000/svg">
<path d="M36.3335 31.1928H12L0 37V31.1928V6.0088C0 2.69033 2.9827 0 6.66187 0H36.3381C40.0172 0 43 2.69033 43 6.0088V25.184C42.9954 28.5025 40.0127 31.1928 36.3335 31.1928Z" fill="white"/>
<path d="M14.9415 16.7241C14.9415 18.4267 13.4112 19.807 11.5235 19.807C9.63577 19.807 8.10547 18.4267 8.10547 16.7241C8.10547 15.0214 9.63577 13.6411 11.5235 13.6411C13.4112 13.6411 14.9415 15.0214 14.9415 16.7241Z" fill="#1BB36C"/>
<path d="M24.9161 16.7241C24.9161 18.4267 23.3858 19.807 21.4981 19.807C19.6104 19.807 18.0801 18.4267 18.0801 16.7241C18.0801 15.0214 19.6104 13.6411 21.4981 13.6411C23.3858 13.6411 24.9161 15.0214 24.9161 16.7241Z" fill="#1BB36C"/>
<path d="M34.8897 16.7241C34.8897 18.4267 33.3594 19.807 31.4717 19.807C29.584 19.807 28.0537 18.4267 28.0537 16.7241C28.0537 15.0214 29.584 13.6411 31.4717 13.6411C33.3594 13.6411 34.8897 15.0214 34.8897 16.7241Z" fill="#1BB36C"/>
</svg>
