<svg width="36" height="38" viewBox="0 0 36 38" fill="none" xmlns="http://www.w3.org/2000/svg">
<circle cx="18" cy="20" r="18" fill="white"/>
<path d="M18.756 10.82C16.824 10.82 15.228 11.408 13.94 12.528C12.652 13.676 11.952 15.048 11.84 16.616L15.34 17.316C15.508 16.336 15.872 15.552 16.488 14.964C17.076 14.404 17.832 14.096 18.756 14.096C19.596 14.096 20.296 14.376 20.856 14.88C21.388 15.412 21.668 16.084 21.668 16.896C21.668 17.624 21.388 18.212 20.856 18.66C20.324 19.108 19.624 19.332 18.756 19.332H16.628V23.7H20.016V22.132C21.612 21.936 22.872 21.376 23.824 20.424C24.776 19.5 25.252 18.324 25.252 16.896C25.252 15.104 24.636 13.62 23.46 12.5C22.256 11.38 20.688 10.82 18.756 10.82ZM18.28 25.828C17.636 25.828 17.104 26.052 16.684 26.472C16.264 26.92 16.068 27.424 16.068 27.984C16.068 28.6 16.264 29.104 16.684 29.496C17.104 29.916 17.636 30.112 18.28 30.112C18.896 30.112 19.428 29.916 19.848 29.496C20.268 29.104 20.492 28.6 20.492 27.984C20.492 27.424 20.268 26.92 19.848 26.472C19.428 26.052 18.896 25.828 18.28 25.828Z" fill="#1BB36C"/>
</svg>
