<svg width="72" height="93" viewBox="0 0 72 93" fill="none" xmlns="http://www.w3.org/2000/svg">
<circle cx="36" cy="40" r="36" fill="#1BB36C"/>
<path d="M35.62 22.9C31.48 22.9 28.06 24.16 25.3 26.56C22.54 29.02 21.04 31.96 20.8 35.32L28.3 36.82C28.66 34.72 29.44 33.04 30.76 31.78C32.02 30.58 33.64 29.92 35.62 29.92C37.42 29.92 38.92 30.52 40.12 31.6C41.26 32.74 41.86 34.18 41.86 35.92C41.86 37.48 41.26 38.74 40.12 39.7C38.98 40.66 37.48 41.14 35.62 41.14H31.06V50.5H38.32V47.14C41.74 46.72 44.44 45.52 46.48 43.48C48.52 41.5 49.54 38.98 49.54 35.92C49.54 32.08 48.22 28.9 45.7 26.5C43.12 24.1 39.76 22.9 35.62 22.9ZM34.6 55.06C33.22 55.06 32.08 55.54 31.18 56.44C30.28 57.4 29.86 58.48 29.86 59.68C29.86 61 30.28 62.08 31.18 62.92C32.08 63.82 33.22 64.24 34.6 64.24C35.92 64.24 37.06 63.82 37.96 62.92C38.86 62.08 39.34 61 39.34 59.68C39.34 58.48 38.86 57.4 37.96 56.44C37.06 55.54 35.92 55.06 34.6 55.06Z" fill="white"/>
</svg>
