<svg width="36" height="36" viewBox="0 0 36 36" fill="none" xmlns="http://www.w3.org/2000/svg">
<circle cx="18" cy="18" r="18" fill="#1BB36C"/>
<path d="M21.7692 17.1923C21.7692 15.9323 21.3214 14.8545 20.4258 13.9588C19.5301 13.0632 18.4523 12.6154 17.1923 12.6154C15.9323 12.6154 14.8545 13.0632 13.9588 13.9588C13.0632 14.8545 12.6154 15.9323 12.6154 17.1923C12.6154 18.4523 13.0632 19.5301 13.9588 20.4258C14.8545 21.3214 15.9323 21.7692 17.1923 21.7692C18.4523 21.7692 19.5301 21.3214 20.4258 20.4258C21.3214 19.5301 21.7692 18.4523 21.7692 17.1923ZM27 25.6923C27 26.0465 26.8706 26.353 26.6118 26.6118C26.353 26.8706 26.0465 27 25.6923 27C25.3245 27 25.018 26.8706 24.7728 26.6118L21.2686 23.1178C20.0495 23.9623 18.6907 24.3846 17.1923 24.3846C16.2183 24.3846 15.287 24.1956 14.3981 23.8176C13.5093 23.4396 12.7431 22.9288 12.0995 22.2852C11.4558 21.6415 10.945 20.8753 10.567 19.9865C10.189 19.0977 10 18.1663 10 17.1923C10 16.2183 10.189 15.287 10.567 14.3981C10.945 13.5093 11.4558 12.7431 12.0995 12.0995C12.7431 11.4558 13.5093 10.945 14.3981 10.567C15.287 10.189 16.2183 10 17.1923 10C18.1663 10 19.0977 10.189 19.9865 10.567C20.8753 10.945 21.6415 11.4558 22.2852 12.0995C22.9288 12.7431 23.4396 13.5093 23.8176 14.3981C24.1956 15.287 24.3846 16.2183 24.3846 17.1923C24.3846 18.6907 23.9623 20.0495 23.1178 21.2686L26.622 24.7728C26.874 25.0248 27 25.3313 27 25.6923Z" fill="white"/>
</svg>
