<svg width="46" height="46" viewBox="0 0 46 46" fill="none" xmlns="http://www.w3.org/2000/svg">
<circle cx="23" cy="23" r="23" fill="#1BB36C"/>
<path d="M27.8168 21.968C27.8168 20.358 27.2446 18.9808 26.1002 17.8363C24.9557 16.6919 23.5785 16.1197 21.9685 16.1197C20.3585 16.1197 18.9813 16.6919 17.8368 17.8363C16.6924 18.9808 16.1202 20.358 16.1202 21.968C16.1202 23.578 16.6924 24.9552 17.8368 26.0997C18.9813 27.2441 20.3585 27.8163 21.9685 27.8163C23.5785 27.8163 24.9557 27.2441 26.1002 26.0997C27.2446 24.9552 27.8168 23.578 27.8168 21.968ZM34.5005 32.8291C34.5005 33.2817 34.3352 33.6733 34.0045 34.004C33.6738 34.3347 33.2821 34.5001 32.8296 34.5001C32.3597 34.5001 31.968 34.3347 31.6547 34.004L27.1771 29.5395C25.6193 30.6186 23.8831 31.1582 21.9685 31.1582C20.724 31.1582 19.5339 30.9167 18.3982 30.4337C17.2624 29.9507 16.2834 29.2979 15.461 28.4755C14.6385 27.6531 13.9858 26.674 13.5028 25.5383C13.0198 24.4026 12.7783 23.2125 12.7783 21.968C12.7783 20.7235 13.0198 19.5334 13.5028 18.3977C13.9858 17.262 14.6385 16.2829 15.461 15.4605C16.2834 14.6381 17.2624 13.9853 18.3982 13.5023C19.5339 13.0193 20.724 12.7778 21.9685 12.7778C23.213 12.7778 24.4031 13.0193 25.5388 13.5023C26.6745 13.9853 27.6536 14.6381 28.476 15.4605C29.2984 16.2829 29.9511 17.262 30.4342 18.3977C30.9172 19.5334 31.1587 20.7235 31.1587 21.968C31.1587 23.8826 30.6191 25.6188 29.5399 27.1766L34.0175 31.6542C34.3395 31.9762 34.5005 32.3679 34.5005 32.8291Z" fill="white"/>
</svg>
