<svg width="79" height="85" viewBox="0 0 79 85" fill="none" xmlns="http://www.w3.org/2000/svg">
<path d="M79 0V61.0799H59.0363L50.4685 71.2809L39.5 84.3459L28.5268 71.2809L19.959 61.0799H0V0H79Z" fill="#000301"/>
<path d="M63.2739 33.7062C57.3478 26.6331 48.6834 22.5713 39.5 22.5713C30.3253 22.5713 21.6608 26.6287 15.7261 33.7062L14.8496 34.7524L15.7261 35.7986C21.6608 42.8628 30.3253 46.9247 39.5 46.9247C48.6834 46.9247 57.3478 42.8672 63.2739 35.7986L64.1504 34.7524L63.2739 33.7062Z" fill="white"/>
<path d="M48.1123 34.4508C48.1123 39.373 44.2577 43.3606 39.4995 43.3606C34.7414 43.3606 30.8867 39.373 30.8867 34.4508C30.8867 29.5286 34.7456 25.541 39.4995 25.541C44.2534 25.541 48.1123 29.5286 48.1123 34.4508Z" fill="#000301"/>
</svg>
