<svg width="79" height="85" viewBox="0 0 79 85" fill="none" xmlns="http://www.w3.org/2000/svg">
<path d="M79 0V61.0829H59.0363L50.4685 71.2844L39.5 84.35L28.5268 71.2844L19.959 61.0829H0V0H79Z" fill="#1BB36C"/>
<path d="M51.6137 50.6799L34.6101 51.0853L33.0943 48.8361L33.1071 48.8297C32.8523 48.5143 32.6201 48.1797 32.4202 47.8289L31.043 45.9691L23.1701 35.3473C22.1768 34.012 22.4444 32.1103 23.7861 31.1192C24.1345 30.8586 24.5183 30.6816 24.9182 30.5915C26.0567 30.3309 27.2856 30.7267 28.0306 31.7209L29.8206 34.3144L30.1141 34.6845L31.2171 36.155V14.6573C31.2171 13.1256 32.4589 11.8804 33.9941 11.8804C35.5293 11.8804 36.7775 13.1256 36.7775 14.6573V26.5597C36.7775 25.0216 38.0192 23.7828 39.5544 23.7828C41.0897 23.7828 42.3378 25.0216 42.3378 26.5597V27.6055C42.3378 26.0738 43.5795 24.8286 45.1148 24.8286C46.65 24.8286 47.8982 26.0738 47.8982 27.6055V29.343C47.8982 27.8178 49.1399 26.5726 50.6751 26.5726C51.4492 26.5726 52.1426 26.8879 52.6425 27.3802C53.1425 27.8918 53.4585 28.5772 53.4585 29.343L51.6137 50.6799Z" fill="white"/>
</svg>
