<svg width="79" height="85" viewBox="0 0 79 85" fill="none" xmlns="http://www.w3.org/2000/svg">
<path d="M79 0V61.0829H59.0363L50.4685 71.2844L39.5 84.35L28.5268 71.2844L19.959 61.0829H0V0H79Z" fill="#000301"/>
<path d="M52.9139 47.1982H20.7891V24.4386C20.7891 21.4396 23.4263 19.0083 26.6793 19.0083H52.9139C56.1669 19.0083 58.8041 21.4396 58.8041 24.4386V41.7678C58.8041 44.7668 56.1669 47.1982 52.9139 47.1982Z" fill="white"/>
<path d="M31.6863 47.1982L20.7891 52.651V47.1982H31.6863Z" fill="white"/>
<path d="M33.9993 34.1191C33.9993 35.6578 32.6462 36.9052 30.9771 36.9052C29.3081 36.9052 27.9551 35.6578 27.9551 34.1191C27.9551 32.5804 29.3081 31.333 30.9771 31.333C32.6462 31.3367 33.9993 32.5841 33.9993 34.1191Z" fill="#000301"/>
<path d="M42.8186 34.1191C42.8186 35.6578 41.4655 36.9052 39.7965 36.9052C38.1274 36.9052 36.7744 35.6578 36.7744 34.1191C36.7744 32.5804 38.1274 31.333 39.7965 31.333C41.4655 31.3367 42.8186 32.5841 42.8186 34.1191Z" fill="#000301"/>
<path d="M51.6379 34.1191C51.6379 35.6578 50.2848 36.9052 48.6158 36.9052C46.9468 36.9052 45.5938 35.6578 45.5938 34.1191C45.5938 32.5804 46.9468 31.333 48.6158 31.333C50.2848 31.3367 51.6379 32.5841 51.6379 34.1191Z" fill="#000301"/>
</svg>
