<svg width="79" height="85" viewBox="0 0 79 85" fill="none" xmlns="http://www.w3.org/2000/svg">
<path d="M79 0V61.0829H59.0363L50.4685 71.2844L39.5 84.35L28.5268 71.2844L19.959 61.0829H0V0H79Z" fill="#000301"/>
<path d="M38.6395 13.0684C37.9809 13.0684 37.4491 13.6032 37.4491 14.2588V23.6282H35.0653V14.2588C35.0653 13.6001 34.5306 13.0684 33.8749 13.0684H33.8689C33.2103 13.0684 32.6785 13.6032 32.6785 14.2588V23.6282H30.2978V14.2588C30.2978 13.6001 29.763 13.0684 29.1074 13.0684C28.4517 13.0684 27.917 13.6032 27.917 14.2588V28.8855C27.917 30.7588 29.4367 32.2725 31.3038 32.2725H31.4911V54.3743H36.2587V32.2725H36.4461C38.3162 32.2725 39.8329 30.7558 39.8329 28.8855V14.2588C39.8299 13.6032 39.2981 13.0684 38.6395 13.0684Z" fill="white"/>
<path d="M43.2529 13.0684V31.9643V54.3773H48.0205V31.9643H50.4164C51.1113 31.9643 51.6763 31.4024 51.6763 30.7074V21.4921C51.6732 16.8391 47.9027 13.0684 43.2529 13.0684Z" fill="white"/>
</svg>
