<svg width="79" height="85" viewBox="0 0 79 85" fill="none" xmlns="http://www.w3.org/2000/svg">
<path d="M79 0V61.0829H59.0363L50.4685 71.2844L39.5 84.35L28.5268 71.2844L19.959 61.0829H0V0H79Z" fill="#1BB36C"/>
<path d="M59.5596 40.5848C59.5596 40.5848 56.9925 41.959 56.1794 42.3673C48.0733 46.5679 43.0208 51.706 41.2952 58.7543H37.2865C35.5502 51.706 30.5119 46.5679 22.3916 42.378C21.582 41.9554 19.0078 40.5955 19.0078 40.5955C19.0078 40.5955 21.0494 39.5764 22.3916 39.5764C29.571 39.5231 34.8436 46.7419 37.9611 53.1192V41.7424C37.5279 41.7424 37.0983 41.7033 36.6758 41.6572H36.6687C36.2142 41.5932 35.7845 41.5222 35.3656 41.3979C34.943 41.2879 34.5028 41.1565 34.0945 40.9896C32.5499 40.3682 31.1368 39.3491 29.9899 37.975C27.7921 35.2764 27.1636 31.8285 28.0193 28.6932C29.784 28.4908 31.5664 28.7393 33.1997 29.414C33.9063 29.7193 34.5738 30.0815 35.1916 30.5289C35.3549 29.9466 35.5467 29.382 35.8058 28.8352C36.6047 27.0704 37.9079 25.5684 39.527 24.4961C40.9543 25.501 42.126 26.8432 42.8929 28.4126V28.4268V28.441C43.2125 29.0553 43.4504 29.6803 43.6244 30.3656C44.1747 30.0105 44.7393 29.6909 45.3358 29.453C46.9904 28.7606 48.8047 28.4943 50.5871 28.6932C51.4322 31.825 50.8073 35.2764 48.5952 37.975C47.459 39.3633 46.0211 40.3753 44.4517 41.0038C44.1392 41.1352 43.8161 41.2488 43.4859 41.3269C43.3296 41.3909 43.1699 41.4228 43.0065 41.4619C42.8716 41.4938 42.7402 41.5187 42.6053 41.5471C42.3639 41.5932 42.126 41.6323 41.8775 41.6572C41.4549 41.7104 41.0217 41.7424 40.5992 41.7424V53.1192C43.7131 46.7313 48.9787 39.5267 56.1688 39.5657C57.5038 39.5799 59.5596 40.5848 59.5596 40.5848Z" fill="white"/>
<path d="M35 21.6269H32.2589C28.3106 17.586 36.2072 13.5452 32.2589 9.50439H35C38.9484 13.5452 31.0517 17.586 35 21.6269Z" fill="white"/>
<path d="M41.4971 21.6269H38.756C34.8077 17.586 42.7043 13.5452 38.756 9.50439H41.4971C45.4454 13.5452 37.5488 17.586 41.4971 21.6269Z" fill="white"/>
<path d="M47.9951 21.6269H45.254C41.3057 17.586 49.2023 13.5452 45.254 9.50439H47.9951C51.9434 13.5452 44.0468 17.586 47.9951 21.6269Z" fill="white"/>
</svg>
