<svg width="21" height="21" viewBox="0 0 21 21" fill="none" xmlns="http://www.w3.org/2000/svg">
<path d="M1.63184 16.8921V10.8921C1.63184 8.50514 2.58005 6.21596 4.26787 4.52813C5.9557 2.8403 8.24489 1.89209 10.6318 1.89209C13.0188 1.89209 15.308 2.8403 16.9958 4.52813C18.6836 6.21596 19.6318 8.50514 19.6318 10.8921V16.8921" stroke="black" stroke-width="2" stroke-linecap="round" stroke-linejoin="round"/>
<path d="M19.6318 17.8921C19.6318 18.4225 19.4211 18.9312 19.046 19.3063C18.671 19.6814 18.1623 19.8921 17.6318 19.8921H16.6318C16.1014 19.8921 15.5927 19.6814 15.2176 19.3063C14.8426 18.9312 14.6318 18.4225 14.6318 17.8921V14.8921C14.6318 14.3617 14.8426 13.8529 15.2176 13.4779C15.5927 13.1028 16.1014 12.8921 16.6318 12.8921H19.6318V17.8921ZM1.63184 17.8921C1.63184 18.4225 1.84255 18.9312 2.21762 19.3063C2.5927 19.6814 3.1014 19.8921 3.63184 19.8921H4.63184C5.16227 19.8921 5.67098 19.6814 6.04605 19.3063C6.42112 18.9312 6.63184 18.4225 6.63184 17.8921V14.8921C6.63184 14.3617 6.42112 13.8529 6.04605 13.4779C5.67098 13.1028 5.16227 12.8921 4.63184 12.8921H1.63184V17.8921Z" stroke="black" stroke-width="2" stroke-linecap="round" stroke-linejoin="round"/>
</svg>
